### ADSIM MESH FILE ###
### Version: ADSIM_2025 ###

MESH 62 30

coordinates
0.1 0
0.1 0.05
0.13 0
0.13 0.05
0.16 0
0.16 0.05
0.19 0
0.19 0.05
0.22 0
0.22 0.05
0.25 0
0.25 0.05
0.28 0
0.28 0.05
0.31 0
0.31 0.05
0.34 0
0.34 0.05
0.37 0
0.37 0.05
0.4 0
0.4 0.05
0.43 0
0.43 0.05
0.46 0
0.46 0.05
0.49 0
0.49 0.05
0.52 0
0.52 0.05
0.55 0
0.55 0.05
0.58 0
0.58 0.05
0.61 0
0.61 0.05
0.64 0
0.64 0.05
0.67 0
0.67 0.05
0.7 0
0.7 0.05
0.73 0
0.73 0.05
0.76 0
0.76 0.05
0.79 0
0.79 0.05
0.82 0
0.82 0.05
0.85 0
0.85 0.05
0.88 0
0.88 0.05
0.91 0
0.91 0.05
0.94 0
0.94 0.05
0.97 0
0.97 0.05
1 0
1 0.05
end coordinates

elements
3 4 2 1
5 6 4 3
7 8 6 5
9 10 8 7
11 12 10 9
13 14 12 11
15 16 14 13
17 18 16 15
19 20 18 17
21 22 20 19
23 24 22 21
25 26 24 23
27 28 26 25
29 30 28 27
31 32 30 29
33 34 32 31
35 36 34 33
37 38 36 35
39 40 38 37
41 42 40 39
43 44 42 41
45 46 44 43
47 48 46 45
49 50 48 47
51 52 50 49
53 54 52 51
55 56 54 53
57 58 56 55
59 60 58 57
61 62 60 59
end elements

concentration_bc
4
1 2000.0000
2 2000.0000
61 1000.0000
62 1000.0000
end concentration_bc

uniform_flow_bc
0
end uniform_flow_bc

absolute_pressure
0
end absolute_pressure

initial_concentrations
30
1 1500.0000
2 1500.0000
3 1500.0000
4 1500.0000
5 1500.0000
6 1500.0000
7 1500.0000
8 1500.0000
9 1500.0000
10 1500.0000
11 1500.0000
12 1500.0000
13 1500.0000
14 1500.0000
15 1500.0000
16 1500.0000
17 1500.0000
18 1500.0000
19 1500.0000
20 1500.0000
21 1500.0000
22 1500.0000
23 1500.0000
24 1500.0000
25 1500.0000
26 1500.0000
27 1500.0000
28 1500.0000
29 1500.0000
30 1500.0000
end initial_concentrations

initial_temperature
30
1 298.00
2 298.00
3 298.00
4 298.00
5 298.00
6 298.00
7 298.00
8 298.00
9 298.00
10 298.00
11 298.00
12 298.00
13 298.00
14 298.00
15 298.00
16 298.00
17 298.00
18 298.00
19 298.00
20 298.00
21 298.00
22 298.00
23 298.00
24 298.00
25 298.00
26 298.00
27 298.00
28 298.00
29 298.00
30 298.00
end initial_temperature

temperature_bc
0
end temperature_bc

convective_heat_bc
0
end convective_heat_bc

materials
30
1 1
2 1
3 1
4 1
5 1
6 1
7 1
8 1
9 1
10 1
11 1
12 1
13 1
14 1
15 1
16 1
17 1
18 1
19 1
20 1
21 1
22 1
23 1
24 1
25 1
26 1
27 1
28 1
29 1
30 1
end materials

