### ADSIM MESH FILE ###
### Version: ADSIM_2025 ###

MESH 42 20

coordinates
0 0
0 0.05
0.05 0
0.05 0.05
0.1 0
0.1 0.05
0.15 0
0.15 0.05
0.2 0
0.2 0.05
0.25 0
0.25 0.05
0.3 0
0.3 0.05
0.35 0
0.35 0.05
0.4 0
0.4 0.05
0.45 0
0.45 0.05
0.5 0
0.5 0.05
0.55 0
0.55 0.05
0.6 0
0.6 0.05
0.65 0
0.65 0.05
0.7 0
0.7 0.05
0.75 0
0.75 0.05
0.8 0
0.8 0.05
0.85 0
0.85 0.05
0.9 0
0.9 0.05
0.95 0
0.95 0.05
1 0
1 0.05
end coordinates

elements
3 4 2 1
5 6 4 3
7 8 6 5
9 10 8 7
11 12 10 9
13 14 12 11
15 16 14 13
17 18 16 15
19 20 18 17
21 22 20 19
23 24 22 21
25 26 24 23
27 28 26 25
29 30 28 27
31 32 30 29
33 34 32 31
35 36 34 33
37 38 36 35
39 40 38 37
41 42 40 39
end elements

concentration_bc
0
end concentration_bc

uniform_flow_bc
0
end uniform_flow_bc

absolute_pressure
0
end absolute_pressure

initial_concentrations
20
1 41.0
2 41.0
3 41.0
4 41.0
5 41.0
6 41.0
7 41.0
8 41.0
9 41.0
10 41.0
11 41.0
12 41.0
13 41.0
14 41.0
15 41.0
16 41.0
17 41.0
18 41.0
19 41.0
20 41.0
end initial_concentrations

initial_temperature
20
1 300.00
2 300.00
3 300.00
4 300.00
5 300.00
6 300.00
7 300.00
8 300.00
9 300.00
10 300.00
11 300.00
12 300.00
13 300.00
14 300.00
15 300.00
16 300.00
17 300.00
18 300.00
19 300.00
20 300.00
end initial_temperature

temperature_bc
2
41 400.00
42 400.00
end temperature_bc

convective_heat_bc
0
end convective_heat_bc

materials
20
1 1
2 1
3 1
4 1
5 1
6 1
7 1
8 1
9 1
10 1
11 1
12 1
13 1
14 1
15 1
16 1
17 1
18 1
19 1
20 1
end materials

