### ADSIM MESH FILE ###
### Version: ADSIM v0.1.0 ###

MESH 745 720

coordinates
0.1305261922200649 0.9914448613738087
0.11914704525118364 0.9352580146045774
0.10879927274017342 0.8691983178288447
0.258819045102522 0.9659258262890678
2.4492935982947064e-16 1.0
0.23649092037670078 0.9102410901638647
6.661338147750939e-16 0.9436448229568737
0.21609242223909103 0.8455695816392693
5.551115123125783e-16 0.8771197424827255
0.09927659979546105 0.7952403410479105
0.19723762537205136 0.7737086551951602
6.661338147750939e-16 0.8024587392637597
0.35031829382620583 0.8690220961479174
-0.11914704525114939 0.9352580146045821
0.3826834323650828 0.9238795325112895
-0.13052619222002854 0.9914448613738134
0.3204848930192123 0.8066378281413263
-0.10879927274014284 0.8691983178288494
0.09037275152547225 0.7153586542630754
0.17954060445793935 0.6964556653114155
2.220446049250313e-16 0.7216957939861801
0.2926768823977258 0.7382320948201598
-0.09927659979543374 0.7952403410479149
0.2663879144153699 0.665310262513061
-0.09037275152544755 0.7153586542630792
0.0818814530386317 0.6315278274756402
0.4590870732877451 0.8123063009724129
0.4207933187215753 0.7530691904312865
-0.23649092037666714 0.9102410901638744
-0.2160924222390606 0.8455695816392791
0.16261543417911234 0.6156079664679139
2.220446049250313e-16 0.6368648873361925
0.4999999999999858 0.8660254037844467
-0.25881904510248643 0.9659258262890774
-0.19723762537202405 0.7737086551951691
0.3845949018722631 0.6894176737068858
0.24111164152576708 0.5893776975486749
-0.08188145303861055 0.6315278274756432
-0.17954060445791514 0.6964556653114228
0.3499679883105935 0.6224553523450291
0.07359642944336608 0.5457224306869043
0.1460761892179278 0.5329629131445337
2.220446049250313e-16 0.55
0.3163887436073528 0.5532858278915356
-0.16261543417909158 0.6156079664679203
0.21634171618254128 0.5119397662556446
-0.32048489301918237 0.8066378281413404
-0.07359642944334754 0.5457224306869067
0.5161237176579818 0.6857802427524028
-0.29267688239769896 0.7382320948201723
-0.3503182938261732 0.869022096147932
0.5614926304449361 0.7410641276173949
0.4722747134924741 0.628100620134503
-0.2663879144153457 0.6653102625130723
0.6087614290086979 0.7933533402912523
-0.38268343236504876 0.9238795325113036
0.42956564079305193 0.5686241942019223
0.2833333333333262 0.483012701892223
-0.14607618921790982 0.5329629131445386
0.06531140584809991 0.4599170338981687
0.12953694425674295 0.4503178598211538
0.0 0.4631351126638077
-0.24111164152574693 0.589377697548684
0.38761652240435324 0.5079498993928873
0.19157179083931575 0.43450183496261463
-0.06531140584808487 0.45991703389817035
0.34604738117101597 0.44667667014562606
0.25027792305929986 0.4127395758929111
-0.2163417161825244 0.5119397662556519
-0.384594901872237 0.6894176737069028
-0.12953694425672863 0.45031785982115724
-0.42079331872154635 0.753069190431305
-0.3499679883105705 0.6224553523450438
0.5553300858898927 0.5553300858899284
0.6059223176554365 0.605922317655476
0.5047378541243491 0.5047378541243808
-0.4590870732877138 0.8123063009724322
0.056820107361259364 0.37608620711073293
0.11261177397791583 0.3694701609776521
0.6565145494209801 0.6565145494210235
-0.31638874360733327 0.5532858278915478
-1.1102230246251565e-16 0.37830420601381937
0.4541456223588055 0.45414562235883316
0.30447823993767853 0.38540344089836454
0.16629551794971303 0.3585692699982282
0.7071067811865237 0.7071067811865711
-0.4999999999999538 0.8660254037844654
-0.05682010736124793 0.3760862071107339
-0.1915717908393021 0.4345018349626196
0.4035533905932619 0.40355339059328554
0.2166986783560585 0.3435700514394171
-0.28333333333331023 0.48301270189223255
-0.11261177397790484 0.3694701609776541
0.3529611588277183 0.35296115882773804
0.26252912154897967 0.3247291460893297
-0.2502779230592874 0.41273957589291754
-0.16629551794970288 0.35856926999823147
0.04791625909127073 0.2962045203258981
0.09491475306380398 0.29221717109390755
-0.4295656407930295 0.5686241942019401
-0.47227471349244865 0.6281006201345235
0.140006549967357 0.28564743769112966
-1.1102230246251565e-16 0.2975412607362403
-0.3876165224043345 0.5079498993929025
0.30236892706217455 0.3023689270621904
0.5079498993935614 0.3876141669573604
0.5686241942027239 0.4295613336905415
-0.5161237176579536 0.6857802427524252
0.18207176479438947 0.27660773007756073
-0.04791625909126174 0.2962045203258985
0.44667667014616474 0.34604738117031364
0.628100620135416 0.472269262315991
-0.3460473811710011 0.44667667014563744
0.6857802427534049 0.5161183337798434
0.21982004884955753 0.2652527201567493
0.3854034408987681 0.3044805953832671
-0.09491475306379582 0.2922171710939085
-0.21669867835605 0.3435700514394212
-0.5614926304449062 0.7410641276174177
-0.30447823993766804 0.3854034408983726
0.7410641276184539 0.561488929028233
0.25177669529663094 0.2517766952966428
0.32472914608960574 0.26253342865008594
-0.14000654996735012 0.28564743769113127
-0.6087614290086688 0.7933533402912749
0.7933533402923295 0.6087614290072939
0.07605995619676459 0.2203562446497983
-0.26252912154897273 0.3247291460893349
0.11219853934587048 0.21724170436996298
0.03839358614655819 0.2222465435449642
0.14587334794507684 0.21295621335315995
-1.1102230246251565e-16 0.22288025751727455
-0.18207176479438375 0.27660773007756256
0.2652527201569127 0.2198255000246364
0.17597104468405017 0.20757309753884925
-0.03839358614655258 0.2222465435449642
0.4830127018925304 0.2833333333327948
0.41273957589314014 0.2502843679190582
0.2011844635310873 0.2011844635310952
-0.45414562235882594 0.45414562235882594
-0.4035533905932793 0.4035533905932793
0.5532858278919204 0.31638229874653123
-0.0760599561967591 0.22035624464979842
-0.5047378541243724 0.5047378541243724
-0.3529611588277328 0.3529611588277328
0.34357005143957337 0.21671046324293003
-0.2198200488495538 0.26525272015675166
0.6224553523454872 0.34995620342265943
-0.11219853934586632 0.21724170436996337
-0.5553300858899191 0.5553300858899191
-0.3023689270621862 0.3023689270621862
0.20757309753892472 0.1759764285607836
0.2766077300776527 0.1820866800420186
0.6894176737074078 0.3845799866235712
-0.145873347945074 0.21295621335316045
-0.6059223176554656 0.6059223176554656
-0.2517766952966397 0.2517766952966397
0.08236513853887711 0.15485743636337174
0.10757959337890727 0.15371910281203344
0.05566145805915507 0.1556847361252029
0.13060213189709585 0.15228921267385728
0.15059223176554365 0.1505922317655476
0.028045813635548204 0.15618684676923128
-0.17597104468404862 0.2075730975388499
0.7530691904318592 0.42077858761165765
-1.1102230246251565e-16 0.15635517704312618
0.21295621335320142 0.14588807905393175
-0.028045813635545425 0.15618684676923122
-0.6565145494210121 0.6565145494210121
0.4345018349626759 0.19158084345105486
0.3585692699982688 0.16631207129706638
-0.0556614580591524 0.15568473612520278
-0.20118446353109312 0.20118446353109312
-0.38540344089842127 0.30447601247601813
-0.32472914608936826 0.2625250484763146
0.15228921267387566 0.13060583331239428
-0.0823651385388754 0.15485743636337151
0.5119397662557287 0.2163417161823395
0.8123063009730177 0.4590769456493111
0.2856474376911521 0.1400275002976707
-0.44667667014570245 0.3460473811709165
-0.2652527201567717 0.21981489386699943
-0.10757959337890649 0.15371910281203316
-0.5079498993929832 0.3876187498658153
-0.13060213189709607 0.15228921267385692
0.5893776975487812 0.24110258891362413
-0.20757309753885922 0.17596595334326792
0.21724170436997223 0.11221923103016335
0.15371910281204293 0.10758972101627834
-0.7071067811865587 0.7071067811865587
0.8660254037850603 0.499999999998923
-0.15059223176554656 0.15059223176554656
0.1 0.1
0.08333333333333334 0.1
0.06666666666666668 0.1
0.05000000000000001 0.1
0.033333333333333326 0.1
-0.568624194202036 0.42956971386551956
0.016666666666666677 0.1
0.0 0.1
0.6653102625131881 0.2663713610676123
-0.016666666666666656 0.1
-0.27660773007754935 0.1820576597417098
-0.15228921267385953 0.13059863160031465
-0.03333333333333335 0.1
-0.3435700514393994 0.21668753362309262
0.1 0.08333333333333334
0.08333333333333334 0.08333333333333334
0.15485743636337237 0.08237936407184104
-0.05000000000000001 0.1
0.06666666666666665 0.08333333333333334
0.36947016097767615 0.11262758840201342
0.2922171710939203 0.09493476819436797
0.05000000000000001 0.08333333333333337
-0.21295621335315398 0.14585941702884114
-0.06666666666666668 0.1
0.033333333333333375 0.0833333333333334
0.016666666666666677 0.08333333333333334
-0.08333333333333334 0.1
0.0 0.08333333333333337
-0.4127395758928861 0.2502718282834852
-0.6281006201346326 0.4722798684748337
0.4503178598211909 0.12954559276983146
0.22035624464980258 0.07607972422698173
-0.016666666666666677 0.08333333333333337
-0.1 0.1
-0.033333333333333354 0.0833333333333334
0.1 0.06666666666666668
-0.05 0.08333333333333334
0.08333333333333337 0.06666666666666665
0.7382320948203045 0.29265593206700824
0.06666666666666665 0.06666666666666665
0.05000000000000001 0.06666666666666665
-0.15371910281203155 0.1075700158739914
-0.06666666666666668 0.08333333333333337
0.033333333333333305 0.06666666666666665
0.01666666666666669 0.06666666666666665
-0.08333333333333334 0.08333333333333334
0.0 0.06666666666666665
0.15568473612520295 0.05567504857994149
0.5329629131445854 0.14607618921773607
-0.01666666666666665 0.06666666666666665
-0.1 0.08333333333333334
-0.4830127018921909 0.2833333333333823
-0.033333333333333354 0.06666666666666665
0.1 0.05000000000000001
-0.05000000000000001 0.06666666666666665
0.08333333333333337 0.05000000000000001
0.06666666666666665 0.05000000000000001
-0.685780242752545 0.516128808998565
0.05000000000000001 0.05000000000000001
-0.2172417043699562 0.11217897092855894
-0.06666666666666668 0.06666666666666671
0.033333333333333354 0.05000000000000001
-0.2856474376911164 0.13998673694484487
0.016666666666666677 0.050000000000000044
-0.08333333333333334 0.06666666666666665
0.0 0.05000000000000001
0.8066378281414853 0.3204642013345155
-0.15485743636336946 0.08235168525196968
-0.01666666666666665 0.050000000000000044
-0.1 0.06666666666666668
-0.033333333333333354 0.05000000000000001
0.22224654354496473 0.0384055561710982
0.29620452032590255 0.04792837874108835
-0.05000000000000001 0.05000000000000001
0.1 0.033333333333333326
-0.35856926999820704 0.16627986321590232
0.0833333333333334 0.033333333333333375
0.06666666666666665 0.033333333333333305
0.6156079664679796 0.16260678566564085
-0.5532858278914957 0.3163948383832801
0.05000000000000002 0.033333333333333354
-0.06666666666666668 0.050000000000000044
0.033333333333333354 0.033333333333333354
0.15618684676923048 0.028054043027430642
0.016666666666666677 0.033333333333333354
-0.08333333333333334 0.050000000000000044
0.376086207110743 0.056829683380821006
0.0 0.033333333333333354
-0.1 0.05000000000000001
-0.01666666666666665 0.033333333333333305
-0.7410641276175447 0.5614961307415189
-0.033333333333333354 0.033333333333333354
-0.05000000000000001 0.033333333333333305
0.1 0.016666666666666677
0.08333333333333337 0.016666666666666677
0.06666666666666665 0.01666666666666669
0.8690220961480843 0.35030406829283767
0.05000000000000001 0.016666666666666677
-0.06666666666666668 0.033333333333333305
-0.1556847361252021 0.0556486047602513
-0.4345018349625842 0.19156322965680783
0.033333333333333354 0.016666666666666677
-0.22035624464979625 0.07604126048927051
0.016666666666666677 0.016666666666666677
-0.08333333333333334 0.033333333333333305
0.45991703389818495 0.06531664273371468
0.0 0.016666666666666677
-0.1 0.033333333333333326
-0.01666666666666665 0.016666666666666677
-0.033333333333333354 0.016666666666666677
-0.622455352344982 0.3499791330436724
0.6964556653114944 0.17952479003345917
-0.29221717109390477 0.09489582365996996
-0.05000000000000001 0.016666666666666677
0.1563551770431244 2.4608093340816595e-13
0.1 0.0
0.08333333333333337 0.0
0.06666666666666665 0.0
-0.06666666666666668 0.016666666666666677
0.05000000000000001 0.0
0.2228802575172722 4.939382236557321e-13
0.033333333333333354 0.0
0.016666666666666677 0.0
-0.08333333333333334 0.016666666666666677
0.0 0.0
-0.7933533402914044 0.6087614290085002
0.9238795325114568 0.38268343236467883
-0.1 0.016666666666666677
-0.01666666666666665 0.0
-0.033333333333333354 0.0
-0.15618684676922973 0.02803803038017505
0.29754126073623766 7.443490268599362e-13
-0.5119397662556051 0.21634171618263753
0.5457224306869278 0.07359642944318912
-0.05000000000000001 0.0
0.1 -0.016666666666666656
0.08333333333333337 -0.016666666666666677
0.06666666666666665 -0.016666666666666677
-0.06666666666666668 0.0
-0.3694701609776482 0.11259681741192967
0.05000000000000001 -0.016666666666666677
0.033333333333333354 -0.016666666666666677
-0.08333333333333334 0.0
0.016666666666666677 -0.01666666666666665
-0.2222465435449601 0.03838226504784603
0.0 -0.01666666666666665
-0.1 0.0
-0.016666666666666677 -0.016666666666666677
0.15618684676942338 -0.028054043021396968
-0.689417673706832 0.38460900692505584
-0.033333333333333354 -0.01666666666666665
0.37830420601381753 9.96203119996153e-13
0.7737086551952504 0.1972176102411045
-0.05000000000000001 -0.01666666666666665
0.1 -0.03333333333333335
0.0833333333333334 -0.033333333333333354
0.06666666666666665 -0.033333333333333354
-0.06666666666666668 -0.01666666666666665
0.05000000000000002 -0.033333333333333354
0.033333333333333354 -0.033333333333333354
-0.08333333333333334 -0.01666666666666665
0.016666666666666677 -0.033333333333333354
-0.1563551770431257 1.461275545011631e-12
0.0 -0.033333333333333354
0.22224654354568982 -0.038405556158944865
-0.1 -0.016666666666666656
-0.016666666666666677 -0.033333333333333354
-0.29620452032589173 0.04790479647884699
-0.033333333333333354 -0.033333333333333354
0.6315278274756706 0.08187621615266405
-0.4503178598211487 0.1295287648847303
-0.589377697548626 0.24112020270846696
-0.05000000000000002 -0.033333333333333354
0.1 -0.05000000000000001
0.08333333333333337 -0.05000000000000001
0.06666666666666665 -0.05000000000000001
-0.06666666666666668 -0.033333333333333354
0.05000000000000001 -0.05000000000000001
0.4631351126638068 1.248778858098376e-12
0.033333333333333354 -0.05000000000000001
-0.08333333333333334 -0.033333333333333354
0.15568473612520065 -0.05567504857998723
0.016666666666666677 -0.05000000000000001
0.0 -0.05000000000000001
-0.1 -0.03333333333333335
-0.016666666666666677 -0.05000000000000002
-0.7530691904312274 0.42080724963792426
0.2962045203274313 -0.047928378722746634
-0.2228802575172736 2.9370395004946204e-12
-0.033333333333333354 -0.05000000000000001
0.8455695816393682 0.21607265420849048
-0.05000000000000001 -0.05000000000000001
0.1 -0.06666666666666668
-0.15618684676923184 -0.02803803038011976
0.08333333333333337 -0.06666666666666668
-0.06666666666666668 -0.05000000000000001
0.06666666666666665 -0.06666666666666668
0.05000000000000001 -0.06666666666666668
0.033333333333333354 -0.06666666666666668
-0.3760862071107228 0.05681105048234536
-0.08333333333333333 -0.05000000000000002
0.016666666666666677 -0.06666666666666668
0.0 -0.06666666666666668
-0.1 -0.05000000000000001
-0.016666666666666677 -0.06666666666666668
-0.033333333333333354 -0.06666666666666668
0.2203562446497921 -0.07607972422707487
-0.05000000000000001 -0.06666666666666668
0.15485743636336924 -0.0823793640718819
0.7153586542631126 0.09036317550555745
-0.5329629131445279 0.14607618921795096
0.1 -0.08333333333333334
0.08333333333333337 -0.08333333333333334
-0.06666666666666668 -0.06666666666666668
0.5500000000000002 1.501743174259218e-12
-0.6653102625130033 0.2664035691493731
0.3760862071132792 -0.0568296833562385
0.06666666666666665 -0.08333333333333334
0.05000000000000001 -0.08333333333333334
0.033333333333333354 -0.08333333333333334
-0.08333333333333334 -0.06666666666666668
-0.2975412607362395 4.42429426428248e-12
0.016666666666666677 -0.08333333333333334
0.0 -0.08333333333333334
-0.81230630097235 0.4590966507927733
-0.1 -0.06666666666666668
-0.016666666666666677 -0.08333333333333334
0.9102410901639679 0.23647732985553083
-0.1556847361252044 -0.05564860476021477
-0.033333333333333354 -0.08333333333333334
-0.2222465435449668 -0.038382265047734954
-0.05000000000000001 -0.08333333333333334
0.1 -0.1
0.08333333333333334 -0.1
-0.06666666666666668 -0.08333333333333334
0.06666666666666668 -0.1
0.05000000000000001 -0.1
0.033333333333333326 -0.1
-0.08333333333333334 -0.08333333333333334
0.016666666666666677 -0.1
-0.4599170338981543 0.06530645286750897
0.29221717109389717 -0.09493476819450863
0.0 -0.1
-0.1 -0.08333333333333334
0.1537191028120316 -0.10758972101634734
-0.016666666666666656 -0.1
-0.03333333333333335 -0.1
-0.05000000000000001 -0.1
0.45991703390186467 -0.06531664270285775
0.21724170436995632 -0.11221923103024833
-0.06666666666666668 -0.1
-0.15485743636337368 -0.08235168525192865
-0.8660254037843816 0.5000000000000987
0.9659258262891706 0.25881904510213893
-0.08333333333333334 -0.1
0.7952403410479527 0.09926448014528994
0.6368648873361936 1.755373624234835e-12
-0.37830420601381876 5.9203197899648785e-12
-0.7382320948200938 0.2926966954204302
-0.6156079664679072 0.16262361355117133
-0.1 -0.1
0.1522892126738551 -0.13060583331246411
-0.29620452032590494 -0.0479047964786799
-0.22035624464980513 -0.07604126048919607
0.3694701609776374 -0.11262758840220222
-0.15371910281203166 -0.1075700158739849
-0.5457224306868861 0.07359642944350497
0.21295621335315726 -0.14588807905408152
0.285647437691118 -0.14002750029780098
0.15059223176554568 -0.15059223176554568
0.5457224306918186 -0.07359642940604011
0.13060365093780874 -0.15228921267454643
0.10758374972519769 -0.15371910281341628
0.08237097671669402 -0.1548574363638833
0.05566703570293935 -0.15568473612525952
0.8691983178288907 0.10878730271528009
0.028049191070413537 -0.15618684676923852
-0.8066378281412542 0.3205044614367158
0.7216957939861826 2.0077828288833643e-12
-2.2293278334473143e-13 -0.15635517704312527
-0.4631351126638071 7.421840919619171e-12
-0.21724170436997242 -0.11217897092847484
-0.1522892126738548 -0.1305986316003262
-0.028049191070851798 -0.15618684676922467
-0.6964556653114077 0.1795555610239717
-0.05566703570335396 -0.1556847361252318
-0.3760862071107455 -0.056811050482122316
-0.2922171710939232 -0.09489582365985755
0.4503178598211334 -0.12954559277007
-0.08237097671706572 -0.1548574363638422
-0.10758374972548701 -0.1537191028133651
0.2075730975388434 -0.1759764285609523
-0.1306036509379136 -0.1522892126745134
-0.15059223176554565 -0.15059223176554565
0.3585692699982109 -0.16631207129724412
0.2766077300775572 -0.18208668004225737
0.6315278274817723 -0.08187621610922258
-0.6315278274756178 0.08188640601950092
0.9352580146046253 0.11913881585894753
-0.8690220961478405 0.3503317471133053
-0.21295621335315712 -0.14585941702882627
0.20118446353109135 -0.20118446353109135
0.8024587392637623 2.2595258997171186e-12
0.17597325419573506 -0.20757309754144726
-0.55 8.926415162591184e-12
-0.7737086551951512 0.19725655477593174
0.1458793935341423 -0.21295621335836876
-0.28564743769115086 -0.13998673694471486
0.5329629131445084 -0.14607618921802334
0.11220703123801673 -0.21724170437189178
-0.45991703389818733 -0.06530645286722936
-0.36947016097767926 -0.11259681741177918
0.07606806913267994 -0.22035624465001413
-0.20757309753884357 -0.17596595334329734
0.038398498778941526 -0.22224654354499424
-0.9238795325112102 0.3826834323652751
0.9914448613738551 0.13052619221971173
0.26525272015673934 -0.21982550002492612
-4.4775294583132563e-13 -0.22288025751727306
0.434501834962591 -0.1915808434512814
-0.038398498779824375 -0.22224654354494167
0.3435700514394136 -0.21671046324326498
-0.07606806913352249 -0.2203562446499095
0.7153586542703575 -0.09036317545584172
-0.11220703123878673 -0.21724170437173707
-0.14587939353476764 -0.21295621335817635
-0.7153586542630492 0.09038180840466437
-0.1759732541959863 -0.20757309754132294
-0.20118446353109132 -0.20118446353109132
0.8771197424827284 2.509770169467629e-12
-0.2766077300775576 -0.1820576597416862
-0.8455695816392594 0.2161111179466314
0.25177669529663704 -0.25177669529663704
0.6156079664678832 -0.16260678566597692
-0.6368648873361928 1.043115593901689e-11
-0.3585692699982649 -0.1662798632157259
0.21982228597642195 -0.26525272016223134
-0.5457224306869302 -0.07359642944316908
-0.4503178598211945 -0.12952876488454107
0.5119397662556143 -0.2163417161826151
0.32472914608931486 -0.26253342865051477
0.18207788594341817 -0.2766077300885502
0.4127395758929068 -0.250284367919494
-0.2652527201567394 -0.21981489386705028
0.14001514800304232 -0.2856474376952007
0.7952403410562052 -0.09926448008933347
0.9436448229568755 2.75784950432012e-12
0.09492296741052847 -0.2922171710943645
-0.7952403410478804 0.09928806240816301
-0.9102410901638536 0.23650377367565
0.047921233131294316 -0.29620452032596345
-6.743494651573201e-13 -0.297541260736239
-0.34357005143941344 -0.2166875336230607
-0.04792123313262664 -0.29620452032585237
0.6964556653113797 -0.17952479003384408
-0.251776695296637 -0.251776695296637
-0.09492296741180917 -0.2922171710941439
-0.2198222859768541 -0.265252720161969
0.30236892706218266 -0.30236892706218266
-0.14001514800423182 -0.28564743769487394
-0.18207788594441693 -0.2766077300881443
-0.7216957939861812 1.1933343202485958e-11
-0.4345018349626686 -0.1915632296565838
0.589377697548638 -0.2411025889139488
-0.6315278274756729 -0.08188640601910863
-0.532962913144589 -0.14607618921772275
1.0 3.0036399478509988e-12
-0.9659258262890558 0.25881904510256815
0.38540344089834444 -0.3044805953838462
0.48301270189221945 -0.28333333333333355
0.2625308891491794 -0.3247291460984277
0.869198317837947 -0.10878730265313546
-0.8691983178288115 0.10881059383916353
-0.32472914608931536 -0.26252504847639024
0.21670351480294267 -0.3435700514576535
0.166302311450845 -0.3585692700049843
0.7737086551951194 -0.1972176102415381
-0.4127395758929072 -0.25027182828344474
0.11261826432445732 -0.369470160978412
-0.8024587392637605 1.3428924638958506e-11
0.3529611588277284 -0.3529611588277284
-0.30236892706218266 -0.30236892706218266
0.665310262513018 -0.26637136106798553
-0.5119397662557179 -0.21634171618236508
0.05682403746651643 -0.37608620711084284
0.9352580146142137 -0.1191388157906832
-0.715358654263115 -0.09038180840421556
-0.2625308891498177 -0.3247291460979931
-0.6156079664679834 -0.1626236135509046
0.4466766701456007 -0.34604738117104983
0.5532858278915315 -0.31638229874717283
-9.025002967177898e-13 -0.3783042060138185
-0.9352580146045417 0.11915482850683506
-0.2167035148043424 -0.3435700514569802
-0.056824037468301336 -0.37608620711065865
-0.16630231145246976 -0.3585692700044427
-0.11261826432618449 -0.36947016097804625
0.3044792065833175 -0.38540344091156625
-0.385403440898345 -0.30447601247612127
0.8455695816392245 -0.21607265420897231
0.25028056796263276 -0.41273957591937116
-0.8771197424827264 1.491595735814144e-11
0.9914448613836366 -0.13052619214541367
-0.991444861373772 0.13052619222034306
-0.48301270189221945 -0.2833333333333332
0.7382320948201107 -0.29265593206742885
0.403553390593274 -0.403553390593274
0.19157550602049922 -0.43450183497241823
-0.589377697548767 -0.24112020270814627
-0.35296115882772827 -0.35296115882772827
0.6224553523450249 -0.3499562034234016
0.5079498993928567 -0.3876141669582527
-0.7952403410479557 -0.09928806240765808
-0.6964556653114983 -0.1795555610236661
0.12954049366244036 -0.4503178598222572
-0.3044792065841788 -0.38540344091093526
0.06531355512365078 -0.45991703389832883
0.3460473811481455 -0.44667667016317536
0.9102410901638165 -0.23647732985605918
-0.2502805679644523 -0.4127395759183943
-0.44667667014560175 -0.3460473811710479
-1.130984195185647e-12 -0.4631351126638069
-0.9436448229568742 1.639177682477566e-11
-0.19157550602256973 -0.4345018349716323
-0.0653135551258911 -0.4599170338980615
-0.12954049366461862 -0.45031785982172645
-0.5532858278915314 -0.3163948383832217
0.8066378281412725 -0.32046420133498177
0.4541456223588197 -0.4541456223588197
0.28333333327240506 -0.48301270192739654
0.6894176737068812 -0.38457998662440884
-0.8691983178288936 -0.10881059383860292
0.5686241942018858 -0.4295613336915841
-0.6653102625131708 -0.2664035691490039
-0.7737086551952548 -0.1972565547755879
-0.403553390593274 -0.403553390593274
-0.9999999999999999 1.785312322816851e-11
0.9659258262890166 -0.25881904510271364
0.21634171615107883 -0.511939766268677
-0.34604738114923805 -0.446676670162337
-0.507949899392858 -0.3876187498659742
0.38761555571297346 -0.5079498994147845
0.14607618921244991 -0.5329629131460019
-0.2833333332746544 -0.4830127019260978
0.8690220961478596 -0.3503040682933479
0.07359642944174083 -0.5457224306871182
-0.6224553523450251 -0.34997913304360545
-0.9352580146046289 -0.11915482850621817
0.5047378541243653 -0.5047378541243653
-0.21634171615360082 -0.5119397662676325
0.7530691904312812 -0.42077858761258535
0.6281006201344619 -0.47226926231717264
-1.3599121828633542e-12 -0.5500000000000002
-0.14607618921508236 -0.5329629131452966
-0.738232094820285 -0.29269669542001503
-0.07359642944443845 -0.5457224306867633
-0.8455695816393729 -0.21611111794624954
0.3163860985821781 -0.5532858279354214
-0.4541456223588196 -0.4541456223588196
-0.5686241942018877 -0.429569713865705
0.2411079262816589 -0.5893776975649361
-0.3876155557142973 -0.5079498994137385
-0.9914448613738605 -0.13052619221967135
0.9238795325112287 -0.3826834323652302
0.4295638731471114 -0.5686241942279229
-0.6894176737068813 -0.38460900692497985
0.8123063009724065 -0.45907694565031876
0.5553300858899111 -0.5553300858899111
0.6857802427523574 -0.516118333781147
0.1626118847624598 -0.6156079664697461
-0.316386098584856 -0.553285827933801
-0.9102410901639737 -0.23650377367523107
-0.8066378281414637 -0.32050446143625533
0.08187930375983166 -0.6315278274759079
-0.24110792628463162 -0.5893776975636327
-0.5047378541243652 -0.5047378541243652
0.349963151741868 -0.6224553523971393
-1.5890622151459866e-12 -0.6368648873361932
-0.16261188476554633 -0.6156079664688662
-0.08187930376298569 -0.6315278274754647
-0.6281006201344638 -0.47227986847504494
0.472272476319869 -0.6281006201641196
-0.4295638731486586 -0.5686241942266809
0.26638112085131294 -0.66531026253237
-0.9659258262891779 -0.25881904510211234
0.8660254037844385 -0.5000000000000004
-0.7530691904312814 -0.4208072496378402
0.6059223176554567 -0.6059223176554567
0.7410641276173462 -0.5614889290296349
-0.8690220961480624 -0.35033174711280135
-0.34996315174496573 -0.6224553523952152
0.17953411410044262 -0.6964556653135917
-0.555330085889911 -0.555330085889911
0.3845887806013921 -0.6894176737662423
-0.26638112085473126 -0.6653102625308224
0.09036882141696578 -0.7153586542633942
-0.6857802427523595 -0.5161288089987981
-0.1795341141039803 -0.6964556653125467
-1.8177681582187688e-12 -0.7216957939861819
0.5161215081005558 -0.6857802427849038
-0.09036882142057545 -0.7153586542628678
-0.47227247632162217 -0.6281006201627044
0.6565145494210023 -0.6565145494210023
-0.8123063009724065 -0.4590966507926817
-0.9238795325114358 -0.38268343236473024
0.7933533402912009 -0.6087614290087656
0.2926682842991155 -0.7382320948421537
-0.3845887806048912 -0.6894176737640509
-0.6059223176554566 -0.6059223176554566
0.19722941101437175 -0.7737086551976391
0.4207872730106681 -0.7530691904964242
-0.2926682843029691 -0.7382320948403907
-0.741064127617348 -0.561496130741769
0.5614911113584822 -0.7410641276518042
0.0992716257521874 -0.7952403410482733
0.707106781186548 -0.707106781186548
-0.8660254037844387 -0.4999999999999998
-0.19722941101835562 -0.7737086551964487
-0.5161215081024895 -0.6857802427833508
-2.045807967476776e-12 -0.8024587392637613
-0.09927162575625048 -0.7952403410476739
0.3204764010641409 -0.8066378281654628
-0.6565145494210022 -0.6565145494210022
-0.4207872730145405 -0.7530691904940191
0.45908291681961294 -0.8123063010413761
0.2160843092922199 -0.8455695816419895
-0.7933533402912031 -0.6087614290087622
0.6087614289629575 -0.7933533403263507
-0.32047640106841435 -0.8066378281635279
0.1087943601045403 -0.8691983178292424
-0.5614911113605633 -0.7410641276501599
-0.21608430929664207 -0.8455695816406832
-2.2724044868027704e-12 -0.8771197424827272
0.3503124555854638 -0.869022096173471
-0.10879436010905258 -0.8691983178285847
-0.7071067811865479 -0.7071067811865479
0.49999999987814353 -0.8660254038547928
-0.4590829168238213 -0.8123063010388302
0.2364853427219607 -0.9102410901667436
-0.3503124555901353 -0.8690220961714225
0.11914366781306851 -0.9352580146049979
-0.6087614289651428 -0.7933533403246735
0.3826834323021578 -0.9238795325373543
-0.23648534272681054 -0.910241090165361
-2.4974466938942896e-12 -0.9436448229568751
-0.11914366781802499 -0.9352580146043016
0.2588190450915667 -0.9659258262920034
-0.4999999998826417 -0.8660254038521954
0.13052619221681516 -0.9914448613742366
-0.3826834323072015 -0.9238795325352648
-2.7203315163012342e-12 -1.0000000000000002
-0.25881904509683146 -0.9659258262905926
-0.13052619222221012 -0.9914448613735263
end coordinates

elements
447 431 436 453
443 427 431 447
440 424 427 443
439 422 424 440
438 419 422 439
435 416 419 438
432 415 416 435
430 412 415 432
429 411 412 430
428 410 411 429
426 405 410 428
425 404 405 426
431 413 418 436
427 406 413 431
424 400 406 427
422 398 400 424
419 397 398 422
416 395 397 419
415 394 395 416
412 391 394 415
411 390 391 412
410 389 390 411
405 387 389 410
404 385 387 405
413 393 396 418
406 388 393 413
400 384 388 406
398 382 384 400
397 378 382 398
395 376 378 397
394 375 376 395
391 372 375 394
390 370 372 391
389 368 370 390
387 367 368 389
385 366 367 387
393 373 377 396
388 369 373 393
384 365 369 388
382 361 365 384
378 359 361 382
376 356 359 378
375 354 356 376
372 352 354 375
370 351 352 372
368 349 351 370
367 348 349 368
366 347 348 367
373 353 358 377
369 350 353 373
365 346 350 369
361 343 346 365
359 340 343 361
356 338 340 359
354 336 338 356
352 334 336 354
351 333 334 352
349 330 333 351
348 329 330 349
347 328 329 348
353 335 339 358
350 331 335 353
346 327 331 350
343 322 327 346
340 321 322 343
338 317 321 340
336 315 317 338
334 314 315 336
333 312 314 334
330 310 312 333
329 309 310 330
328 308 309 329
335 316 320 339
331 311 316 335
327 306 311 331
322 302 306 327
321 301 302 322
317 299 301 321
315 296 299 317
314 294 296 315
312 290 294 314
310 288 290 312
309 287 288 310
308 286 287 309
316 297 300 320
311 291 297 316
306 285 291 311
302 284 285 306
301 282 284 302
299 280 282 301
296 277 280 299
294 275 277 296
290 273 275 294
288 270 273 290
287 269 270 288
286 267 269 287
297 278 281 300
291 274 278 297
285 266 274 291
284 263 266 285
282 261 263 284
280 258 261 282
277 256 258 280
275 254 256 277
273 251 254 275
270 249 251 273
269 248 249 270
267 246 248 269
278 257 262 281
274 253 257 278
266 247 253 274
263 245 247 266
261 242 245 263
258 239 242 261
256 237 239 258
254 236 237 256
251 233 236 254
249 232 233 251
248 230 232 249
246 228 230 248
257 238 243 262
253 235 238 257
247 229 235 253
245 227 229 247
242 225 227 245
239 220 225 242
237 218 220 239
236 217 218 237
233 214 217 236
232 211 214 233
230 208 211 232
228 207 208 230
238 219 226 243
235 216 219 238
229 210 216 235
227 205 210 229
225 202 205 227
220 200 202 225
218 199 200 220
217 197 199 218
214 196 197 217
211 195 196 214
208 194 195 211
207 193 194 208
426 464 462 425
428 465 464 426
429 466 465 428
430 467 466 429
432 469 467 430
435 472 469 432
438 476 472 435
439 478 476 438
440 482 478 439
443 483 482 440
447 485 483 443
453 486 485 447
464 496 494 462
465 499 496 464
466 502 499 465
467 505 502 466
469 507 505 467
472 511 507 469
476 513 511 472
478 515 513 476
482 517 515 478
483 518 517 482
485 520 518 483
486 521 520 485
496 529 525 494
499 534 529 496
502 537 534 499
505 540 537 502
507 543 540 505
511 544 543 507
513 546 544 511
515 549 546 513
517 552 549 515
518 553 552 517
520 550 553 518
521 548 550 520
529 563 551 525
534 567 563 529
537 568 567 534
540 571 568 537
543 577 571 540
544 584 577 543
546 587 584 544
549 589 587 546
552 588 589 549
553 586 588 552
550 580 586 553
548 574 580 550
563 590 573 551
567 593 590 563
568 600 593 567
571 607 600 568
577 609 607 571
584 614 609 577
587 617 614 584
589 618 617 587
588 616 618 589
586 612 616 588
580 608 612 586
574 602 608 580
590 610 599 573
593 622 610 590
600 631 622 593
607 635 631 600
609 638 635 607
614 645 638 609
617 648 645 614
618 646 648 617
616 642 646 618
612 636 642 616
608 632 636 612
602 628 632 608
610 634 621 599
622 650 634 610
631 653 650 622
635 662 653 631
638 666 662 635
645 670 666 638
648 672 670 645
646 671 672 648
642 667 671 646
636 663 667 642
632 654 663 636
628 651 654 632
634 657 641 621
650 669 657 634
653 676 669 650
662 684 676 653
666 688 684 662
670 691 688 666
672 693 691 670
671 690 693 672
667 687 690 671
663 683 687 667
654 675 683 663
651 668 675 654
657 674 660 641
669 686 674 657
676 699 686 669
684 702 699 676
688 707 702 684
691 712 707 688
693 713 712 691
690 710 713 693
687 704 710 690
683 700 704 687
675 694 700 683
668 685 694 675
674 692 680 660
686 703 692 674
699 714 703 686
702 718 714 699
707 722 718 702
712 725 722 707
713 727 725 712
710 724 727 713
704 721 724 710
700 716 721 704
694 711 716 700
685 701 711 694
692 706 695 680
703 717 706 692
714 726 717 703
718 731 726 714
722 733 731 718
725 737 733 722
727 738 737 725
724 736 738 727
721 732 736 724
716 730 732 721
711 723 730 716
701 715 723 711
706 720 708 695
717 729 720 706
726 735 729 717
731 739 735 726
733 741 739 731
737 743 741 733
738 745 743 737
736 744 745 738
732 742 744 736
730 740 742 732
723 734 740 730
715 728 734 723
207 176 162 193
228 189 176 207
246 209 189 228
267 240 209 246
286 276 240 267
308 307 276 286
328 341 307 308
347 374 341 328
366 401 374 347
385 437 401 366
404 454 437 385
425 462 454 404
176 152 139 162
189 167 152 176
209 188 167 189
240 224 188 209
276 264 224 240
307 313 264 276
341 357 313 307
374 399 357 341
401 442 399 374
437 460 442 401
454 484 460 437
462 494 484 454
152 134 122 139
167 153 134 152
188 180 153 167
224 213 180 188
264 265 213 224
313 324 265 264
357 380 324 313
399 434 380 357
442 461 434 399
460 488 461 442
484 510 488 460
494 525 510 484
134 123 105 122
153 146 123 134
180 171 146 153
213 212 171 180
265 279 212 213
324 344 279 265
380 409 344 324
434 457 409 380
461 487 457 434
488 514 487 461
510 533 514 488
525 551 533 510
123 116 94 105
146 138 116 123
171 170 138 146
212 223 170 171
279 298 223 212
344 371 298 279
409 441 371 344
457 481 441 409
487 512 481 457
514 535 512 487
533 561 535 514
551 573 561 533
116 111 90 94
138 137 111 116
170 178 137 138
223 241 178 170
298 326 241 223
371 407 326 298
441 463 407 371
481 501 463 441
512 532 501 481
535 562 532 512
561 582 562 535
573 599 582 561
111 106 83 90
137 142 106 111
178 186 142 137
241 271 186 178
326 362 271 241
407 449 362 326
463 489 449 407
501 526 489 463
532 556 526 501
562 583 556 532
582 604 583 562
599 621 604 582
106 107 76 83
142 148 107 106
186 201 148 142
271 304 201 186
362 402 304 271
449 471 402 362
489 516 471 449
526 547 516 489
556 575 547 526
583 603 575 556
604 625 603 583
621 641 625 604
107 112 74 76
148 154 112 107
201 231 154 148
304 345 231 201
402 448 345 304
471 495 448 402
516 538 495 471
547 569 538 516
575 598 569 547
603 623 598 575
625 644 623 603
641 660 644 625
112 114 75 74
154 165 114 112
231 259 165 154
345 383 259 231
448 468 383 345
495 522 468 448
538 564 522 495
569 592 564 538
598 620 592 569
623 643 620 598
644 661 643 623
660 680 661 644
114 121 80 75
165 179 121 114
259 289 179 165
383 420 289 259
468 491 420 383
522 539 491 468
564 578 539 522
592 611 578 564
620 637 611 592
643 659 637 620
661 681 659 643
680 695 681 661
121 126 86 80
179 191 126 121
289 319 191 179
420 446 319 289
491 509 446 420
539 559 509 491
578 595 559 539
611 630 595 578
637 656 630 611
659 678 656 637
681 698 678 659
695 708 698 681
219 185 192 226
216 183 185 219
210 177 183 216
205 172 177 210
202 168 172 205
200 166 168 202
199 163 166 200
197 160 163 199
196 158 160 197
195 159 158 196
194 161 159 195
193 162 161 194
185 164 173 192
183 155 164 185
177 149 155 183
172 143 149 177
168 136 143 172
166 132 136 168
163 130 132 166
160 127 130 163
158 129 127 160
159 131 129 158
161 135 131 159
162 139 135 161
164 147 157 173
155 133 147 164
149 124 133 155
143 117 124 149
136 110 117 143
132 103 110 136
130 98 103 132
127 99 98 130
129 102 99 127
131 109 102 129
135 115 109 131
139 122 115 135
147 128 151 157
133 118 128 147
124 97 118 133
117 93 97 124
110 88 93 117
103 82 88 110
98 78 82 103
99 79 78 98
102 85 79 99
109 91 85 102
115 95 91 109
122 105 95 115
128 120 145 151
118 96 120 128
97 89 96 118
93 71 89 97
88 66 71 93
82 62 66 88
78 60 62 82
79 61 60 78
85 65 61 79
91 68 65 85
95 84 68 91
105 94 84 95
120 113 141 145
96 92 113 120
89 69 92 96
71 59 69 89
66 48 59 71
62 43 48 66
60 41 43 62
61 42 41 60
65 46 42 61
68 58 46 65
84 67 58 68
94 90 67 84
113 104 140 141
92 81 104 113
69 63 81 92
59 45 63 69
48 38 45 59
43 32 38 48
41 26 32 43
42 31 26 41
46 37 31 42
58 44 37 46
67 64 44 58
90 83 64 67
104 100 144 140
81 73 100 104
63 54 73 81
45 39 54 63
38 25 39 45
32 21 25 38
26 19 21 32
31 20 19 26
37 24 20 31
44 40 24 37
64 57 40 44
83 76 57 64
100 101 150 144
73 70 101 100
54 50 70 73
39 35 50 54
25 23 35 39
21 12 23 25
19 10 12 21
20 11 10 19
24 22 11 20
40 36 22 24
57 53 36 40
76 74 53 57
101 108 156 150
70 72 108 101
50 47 72 70
35 30 47 50
23 18 30 35
12 9 18 23
10 3 9 12
11 8 3 10
22 17 8 11
36 28 17 22
53 49 28 36
74 75 49 53
108 119 169 156
72 77 119 108
47 51 77 72
30 29 51 47
18 14 29 30
9 7 14 18
3 2 7 9
8 6 2 3
17 13 6 8
28 27 13 17
49 52 27 28
75 80 52 49
119 125 190 169
77 87 125 119
51 56 87 77
29 34 56 51
14 16 34 29
7 5 16 14
2 1 5 7
6 4 1 2
13 15 4 6
27 33 15 13
52 55 33 27
80 86 55 52
436 475 486 453
418 458 475 436
396 444 458 418
377 421 444 396
358 386 421 377
339 355 386 358
320 323 355 339
300 292 323 320
281 260 292 300
262 234 260 281
243 204 234 262
226 192 204 243
475 506 521 486
458 493 506 475
444 474 493 458
421 456 474 444
386 423 456 421
355 381 423 386
323 337 381 355
292 295 337 323
260 252 295 292
234 215 252 260
204 187 215 234
192 173 187 204
506 536 548 521
493 523 536 506
474 500 523 493
456 480 500 474
423 455 480 456
381 414 455 423
337 360 414 381
295 305 360 337
252 255 305 295
215 203 255 252
187 182 203 215
173 157 182 187
536 566 574 548
523 545 566 536
500 528 545 523
480 504 528 500
455 479 504 480
414 450 479 455
360 392 450 414
305 332 392 360
255 268 332 305
203 206 268 255
182 175 206 203
157 151 175 182
566 591 602 574
545 570 591 566
528 555 570 545
504 531 555 528
479 503 531 504
450 473 503 479
392 433 473 450
332 363 433 392
268 293 363 332
206 221 293 268
175 174 221 206
151 145 174 175
591 613 628 602
570 597 613 591
555 576 597 570
531 558 576 555
503 530 558 531
473 497 530 503
433 459 497 473
363 403 459 433
293 325 403 363
221 244 325 293
174 181 244 221
145 141 181 174
613 633 651 628
597 619 633 613
576 601 619 597
558 581 601 576
530 557 581 558
497 527 557 530
459 490 527 497
403 452 490 459
325 364 452 403
244 272 364 325
181 184 272 244
141 140 184 181
633 652 668 651
619 639 652 633
601 626 639 619
581 606 626 601
557 579 606 581
527 554 579 557
490 519 554 527
452 477 519 490
364 408 477 452
272 303 408 364
184 198 303 272
140 144 198 184
652 673 685 668
639 658 673 652
626 647 658 639
606 627 647 626
579 605 627 606
554 572 605 579
519 541 572 554
477 498 541 519
408 451 498 477
303 342 451 408
198 222 342 303
144 150 222 198
673 689 701 685
658 679 689 673
647 665 679 658
627 649 665 647
605 624 649 627
572 594 624 605
541 565 594 572
498 524 565 541
451 470 524 498
342 379 470 451
222 250 379 342
150 156 250 222
689 705 715 701
679 696 705 689
665 682 696 679
649 664 682 665
624 640 664 649
594 615 640 624
565 585 615 594
524 542 585 565
470 492 542 524
379 417 492 470
250 283 417 379
156 169 283 250
705 719 728 715
696 709 719 705
682 697 709 696
664 677 697 682
640 655 677 664
615 629 655 640
585 596 629 615
542 560 596 585
492 508 560 542
417 445 508 492
283 318 445 417
169 190 318 283
end elements

concentration_bc
0
end concentration_bc

uniform_flow_bc
0
end uniform_flow_bc

absolute_pressure
0
end absolute_pressure

partial_pressure_bc
0
end partial_pressure_bc

initial_concentrations
0
end initial_concentrations

initial_temperature
720
1 373.15
2 373.15
3 373.15
4 373.15
5 373.15
6 373.15
7 373.15
8 373.15
9 373.15
10 373.15
11 373.15
12 373.15
13 373.15
14 373.15
15 373.15
16 373.15
17 373.15
18 373.15
19 373.15
20 373.15
21 373.15
22 373.15
23 373.15
24 373.15
25 373.15
26 373.15
27 373.15
28 373.15
29 373.15
30 373.15
31 373.15
32 373.15
33 373.15
34 373.15
35 373.15
36 373.15
37 373.15
38 373.15
39 373.15
40 373.15
41 373.15
42 373.15
43 373.15
44 373.15
45 373.15
46 373.15
47 373.15
48 373.15
49 373.15
50 373.15
51 373.15
52 373.15
53 373.15
54 373.15
55 373.15
56 373.15
57 373.15
58 373.15
59 373.15
60 373.15
61 373.15
62 373.15
63 373.15
64 373.15
65 373.15
66 373.15
67 373.15
68 373.15
69 373.15
70 373.15
71 373.15
72 373.15
73 373.15
74 373.15
75 373.15
76 373.15
77 373.15
78 373.15
79 373.15
80 373.15
81 373.15
82 373.15
83 373.15
84 373.15
85 373.15
86 373.15
87 373.15
88 373.15
89 373.15
90 373.15
91 373.15
92 373.15
93 373.15
94 373.15
95 373.15
96 373.15
97 373.15
98 373.15
99 373.15
100 373.15
101 373.15
102 373.15
103 373.15
104 373.15
105 373.15
106 373.15
107 373.15
108 373.15
109 373.15
110 373.15
111 373.15
112 373.15
113 373.15
114 373.15
115 373.15
116 373.15
117 373.15
118 373.15
119 373.15
120 373.15
121 373.15
122 373.15
123 373.15
124 373.15
125 373.15
126 373.15
127 373.15
128 373.15
129 373.15
130 373.15
131 373.15
132 373.15
133 373.15
134 373.15
135 373.15
136 373.15
137 373.15
138 373.15
139 373.15
140 373.15
141 373.15
142 373.15
143 373.15
144 373.15
145 373.15
146 373.15
147 373.15
148 373.15
149 373.15
150 373.15
151 373.15
152 373.15
153 373.15
154 373.15
155 373.15
156 373.15
157 373.15
158 373.15
159 373.15
160 373.15
161 373.15
162 373.15
163 373.15
164 373.15
165 373.15
166 373.15
167 373.15
168 373.15
169 373.15
170 373.15
171 373.15
172 373.15
173 373.15
174 373.15
175 373.15
176 373.15
177 373.15
178 373.15
179 373.15
180 373.15
181 373.15
182 373.15
183 373.15
184 373.15
185 373.15
186 373.15
187 373.15
188 373.15
189 373.15
190 373.15
191 373.15
192 373.15
193 373.15
194 373.15
195 373.15
196 373.15
197 373.15
198 373.15
199 373.15
200 373.15
201 373.15
202 373.15
203 373.15
204 373.15
205 373.15
206 373.15
207 373.15
208 373.15
209 373.15
210 373.15
211 373.15
212 373.15
213 373.15
214 373.15
215 373.15
216 373.15
217 373.15
218 373.15
219 373.15
220 373.15
221 373.15
222 373.15
223 373.15
224 373.15
225 373.15
226 373.15
227 373.15
228 373.15
229 373.15
230 373.15
231 373.15
232 373.15
233 373.15
234 373.15
235 373.15
236 373.15
237 373.15
238 373.15
239 373.15
240 373.15
241 373.15
242 373.15
243 373.15
244 373.15
245 373.15
246 373.15
247 373.15
248 373.15
249 373.15
250 373.15
251 373.15
252 373.15
253 373.15
254 373.15
255 373.15
256 373.15
257 373.15
258 373.15
259 373.15
260 373.15
261 373.15
262 373.15
263 373.15
264 373.15
265 373.15
266 373.15
267 373.15
268 373.15
269 373.15
270 373.15
271 373.15
272 373.15
273 373.15
274 373.15
275 373.15
276 373.15
277 373.15
278 373.15
279 373.15
280 373.15
281 373.15
282 373.15
283 373.15
284 373.15
285 373.15
286 373.15
287 373.15
288 373.15
289 373.15
290 373.15
291 373.15
292 373.15
293 373.15
294 373.15
295 373.15
296 373.15
297 373.15
298 373.15
299 373.15
300 373.15
301 373.15
302 373.15
303 373.15
304 373.15
305 373.15
306 373.15
307 373.15
308 373.15
309 373.15
310 373.15
311 373.15
312 373.15
313 373.15
314 373.15
315 373.15
316 373.15
317 373.15
318 373.15
319 373.15
320 373.15
321 373.15
322 373.15
323 373.15
324 373.15
325 373.15
326 373.15
327 373.15
328 373.15
329 373.15
330 373.15
331 373.15
332 373.15
333 373.15
334 373.15
335 373.15
336 373.15
337 373.15
338 373.15
339 373.15
340 373.15
341 373.15
342 373.15
343 373.15
344 373.15
345 373.15
346 373.15
347 373.15
348 373.15
349 373.15
350 373.15
351 373.15
352 373.15
353 373.15
354 373.15
355 373.15
356 373.15
357 373.15
358 373.15
359 373.15
360 373.15
361 373.15
362 373.15
363 373.15
364 373.15
365 373.15
366 373.15
367 373.15
368 373.15
369 373.15
370 373.15
371 373.15
372 373.15
373 373.15
374 373.15
375 373.15
376 373.15
377 373.15
378 373.15
379 373.15
380 373.15
381 373.15
382 373.15
383 373.15
384 373.15
385 373.15
386 373.15
387 373.15
388 373.15
389 373.15
390 373.15
391 373.15
392 373.15
393 373.15
394 373.15
395 373.15
396 373.15
397 373.15
398 373.15
399 373.15
400 373.15
401 373.15
402 373.15
403 373.15
404 373.15
405 373.15
406 373.15
407 373.15
408 373.15
409 373.15
410 373.15
411 373.15
412 373.15
413 373.15
414 373.15
415 373.15
416 373.15
417 373.15
418 373.15
419 373.15
420 373.15
421 373.15
422 373.15
423 373.15
424 373.15
425 373.15
426 373.15
427 373.15
428 373.15
429 373.15
430 373.15
431 373.15
432 373.15
433 373.15
434 373.15
435 373.15
436 373.15
437 373.15
438 373.15
439 373.15
440 373.15
441 373.15
442 373.15
443 373.15
444 373.15
445 373.15
446 373.15
447 373.15
448 373.15
449 373.15
450 373.15
451 373.15
452 373.15
453 373.15
454 373.15
455 373.15
456 373.15
457 373.15
458 373.15
459 373.15
460 373.15
461 373.15
462 373.15
463 373.15
464 373.15
465 373.15
466 373.15
467 373.15
468 373.15
469 373.15
470 373.15
471 373.15
472 373.15
473 373.15
474 373.15
475 373.15
476 373.15
477 373.15
478 373.15
479 373.15
480 373.15
481 373.15
482 373.15
483 373.15
484 373.15
485 373.15
486 373.15
487 373.15
488 373.15
489 373.15
490 373.15
491 373.15
492 373.15
493 373.15
494 373.15
495 373.15
496 373.15
497 373.15
498 373.15
499 373.15
500 373.15
501 373.15
502 373.15
503 373.15
504 373.15
505 373.15
506 373.15
507 373.15
508 373.15
509 373.15
510 373.15
511 373.15
512 373.15
513 373.15
514 373.15
515 373.15
516 373.15
517 373.15
518 373.15
519 373.15
520 373.15
521 373.15
522 373.15
523 373.15
524 373.15
525 373.15
526 373.15
527 373.15
528 373.15
529 373.15
530 373.15
531 373.15
532 373.15
533 373.15
534 373.15
535 373.15
536 373.15
537 373.15
538 373.15
539 373.15
540 373.15
541 373.15
542 373.15
543 373.15
544 373.15
545 373.15
546 373.15
547 373.15
548 373.15
549 373.15
550 373.15
551 373.15
552 373.15
553 373.15
554 373.15
555 373.15
556 373.15
557 373.15
558 373.15
559 373.15
560 373.15
561 373.15
562 373.15
563 373.15
564 373.15
565 373.15
566 373.15
567 373.15
568 373.15
569 373.15
570 373.15
571 373.15
572 373.15
573 373.15
574 373.15
575 373.15
576 373.15
577 373.15
578 373.15
579 373.15
580 373.15
581 373.15
582 373.15
583 373.15
584 373.15
585 373.15
586 373.15
587 373.15
588 373.15
589 373.15
590 373.15
591 373.15
592 373.15
593 373.15
594 373.15
595 373.15
596 373.15
597 373.15
598 373.15
599 373.15
600 373.15
601 373.15
602 373.15
603 373.15
604 373.15
605 373.15
606 373.15
607 373.15
608 373.15
609 373.15
610 373.15
611 373.15
612 373.15
613 373.15
614 373.15
615 373.15
616 373.15
617 373.15
618 373.15
619 373.15
620 373.15
621 373.15
622 373.15
623 373.15
624 373.15
625 373.15
626 373.15
627 373.15
628 373.15
629 373.15
630 373.15
631 373.15
632 373.15
633 373.15
634 373.15
635 373.15
636 373.15
637 373.15
638 373.15
639 373.15
640 373.15
641 373.15
642 373.15
643 373.15
644 373.15
645 373.15
646 373.15
647 373.15
648 373.15
649 373.15
650 373.15
651 373.15
652 373.15
653 373.15
654 373.15
655 373.15
656 373.15
657 373.15
658 373.15
659 373.15
660 373.15
661 373.15
662 373.15
663 373.15
664 373.15
665 373.15
666 373.15
667 373.15
668 373.15
669 373.15
670 373.15
671 373.15
672 373.15
673 373.15
674 373.15
675 373.15
676 373.15
677 373.15
678 373.15
679 373.15
680 373.15
681 373.15
682 373.15
683 373.15
684 373.15
685 373.15
686 373.15
687 373.15
688 373.15
689 373.15
690 373.15
691 373.15
692 373.15
693 373.15
694 373.15
695 373.15
696 373.15
697 373.15
698 373.15
699 373.15
700 373.15
701 373.15
702 373.15
703 373.15
704 373.15
705 373.15
706 373.15
707 373.15
708 373.15
709 373.15
710 373.15
711 373.15
712 373.15
713 373.15
714 373.15
715 373.15
716 373.15
717 373.15
718 373.15
719 373.15
720 373.15
end initial_temperature

temperature_bc
48
1 273.15
4 273.15
5 273.15
15 273.15
16 273.15
33 273.15
34 273.15
55 273.15
56 273.15
86 273.15
87 273.15
125 273.15
126 273.15
190 273.15
191 273.15
318 273.15
319 273.15
445 273.15
446 273.15
508 273.15
509 273.15
559 273.15
560 273.15
595 273.15
596 273.15
629 273.15
630 273.15
655 273.15
656 273.15
677 273.15
678 273.15
697 273.15
698 273.15
708 273.15
709 273.15
719 273.15
720 273.15
728 273.15
729 273.15
734 273.15
735 273.15
739 273.15
740 273.15
741 273.15
742 273.15
743 273.15
744 273.15
745 273.15
end temperature_bc

convective_heat_bc
0
end convective_heat_bc

materials
720
1 1
2 1
3 1
4 1
5 1
6 1
7 1
8 1
9 1
10 1
11 1
12 1
13 1
14 1
15 1
16 1
17 1
18 1
19 1
20 1
21 1
22 1
23 1
24 1
25 1
26 1
27 1
28 1
29 1
30 1
31 1
32 1
33 1
34 1
35 1
36 1
37 1
38 1
39 1
40 1
41 1
42 1
43 1
44 1
45 1
46 1
47 1
48 1
49 1
50 1
51 1
52 1
53 1
54 1
55 1
56 1
57 1
58 1
59 1
60 1
61 1
62 1
63 1
64 1
65 1
66 1
67 1
68 1
69 1
70 1
71 1
72 1
73 1
74 1
75 1
76 1
77 1
78 1
79 1
80 1
81 1
82 1
83 1
84 1
85 1
86 1
87 1
88 1
89 1
90 1
91 1
92 1
93 1
94 1
95 1
96 1
97 1
98 1
99 1
100 1
101 1
102 1
103 1
104 1
105 1
106 1
107 1
108 1
109 1
110 1
111 1
112 1
113 1
114 1
115 1
116 1
117 1
118 1
119 1
120 1
121 1
122 1
123 1
124 1
125 1
126 1
127 1
128 1
129 1
130 1
131 1
132 1
133 1
134 1
135 1
136 1
137 1
138 1
139 1
140 1
141 1
142 1
143 1
144 1
145 1
146 1
147 1
148 1
149 1
150 1
151 1
152 1
153 1
154 1
155 1
156 1
157 1
158 1
159 1
160 1
161 1
162 1
163 1
164 1
165 1
166 1
167 1
168 1
169 1
170 1
171 1
172 1
173 1
174 1
175 1
176 1
177 1
178 1
179 1
180 1
181 1
182 1
183 1
184 1
185 1
186 1
187 1
188 1
189 1
190 1
191 1
192 1
193 1
194 1
195 1
196 1
197 1
198 1
199 1
200 1
201 1
202 1
203 1
204 1
205 1
206 1
207 1
208 1
209 1
210 1
211 1
212 1
213 1
214 1
215 1
216 1
217 1
218 1
219 1
220 1
221 1
222 1
223 1
224 1
225 1
226 1
227 1
228 1
229 1
230 1
231 1
232 1
233 1
234 1
235 1
236 1
237 1
238 1
239 1
240 1
241 1
242 1
243 1
244 1
245 1
246 1
247 1
248 1
249 1
250 1
251 1
252 1
253 1
254 1
255 1
256 1
257 1
258 1
259 1
260 1
261 1
262 1
263 1
264 1
265 1
266 1
267 1
268 1
269 1
270 1
271 1
272 1
273 1
274 1
275 1
276 1
277 1
278 1
279 1
280 1
281 1
282 1
283 1
284 1
285 1
286 1
287 1
288 1
289 1
290 1
291 1
292 1
293 1
294 1
295 1
296 1
297 1
298 1
299 1
300 1
301 1
302 1
303 1
304 1
305 1
306 1
307 1
308 1
309 1
310 1
311 1
312 1
313 1
314 1
315 1
316 1
317 1
318 1
319 1
320 1
321 1
322 1
323 1
324 1
325 1
326 1
327 1
328 1
329 1
330 1
331 1
332 1
333 1
334 1
335 1
336 1
337 1
338 1
339 1
340 1
341 1
342 1
343 1
344 1
345 1
346 1
347 1
348 1
349 1
350 1
351 1
352 1
353 1
354 1
355 1
356 1
357 1
358 1
359 1
360 1
361 1
362 1
363 1
364 1
365 1
366 1
367 1
368 1
369 1
370 1
371 1
372 1
373 1
374 1
375 1
376 1
377 1
378 1
379 1
380 1
381 1
382 1
383 1
384 1
385 1
386 1
387 1
388 1
389 1
390 1
391 1
392 1
393 1
394 1
395 1
396 1
397 1
398 1
399 1
400 1
401 1
402 1
403 1
404 1
405 1
406 1
407 1
408 1
409 1
410 1
411 1
412 1
413 1
414 1
415 1
416 1
417 1
418 1
419 1
420 1
421 1
422 1
423 1
424 1
425 1
426 1
427 1
428 1
429 1
430 1
431 1
432 1
433 1
434 1
435 1
436 1
437 1
438 1
439 1
440 1
441 1
442 1
443 1
444 1
445 1
446 1
447 1
448 1
449 1
450 1
451 1
452 1
453 1
454 1
455 1
456 1
457 1
458 1
459 1
460 1
461 1
462 1
463 1
464 1
465 1
466 1
467 1
468 1
469 1
470 1
471 1
472 1
473 1
474 1
475 1
476 1
477 1
478 1
479 1
480 1
481 1
482 1
483 1
484 1
485 1
486 1
487 1
488 1
489 1
490 1
491 1
492 1
493 1
494 1
495 1
496 1
497 1
498 1
499 1
500 1
501 1
502 1
503 1
504 1
505 1
506 1
507 1
508 1
509 1
510 1
511 1
512 1
513 1
514 1
515 1
516 1
517 1
518 1
519 1
520 1
521 1
522 1
523 1
524 1
525 1
526 1
527 1
528 1
529 1
530 1
531 1
532 1
533 1
534 1
535 1
536 1
537 1
538 1
539 1
540 1
541 1
542 1
543 1
544 1
545 1
546 1
547 1
548 1
549 1
550 1
551 1
552 1
553 1
554 1
555 1
556 1
557 1
558 1
559 1
560 1
561 1
562 1
563 1
564 1
565 1
566 1
567 1
568 1
569 1
570 1
571 1
572 1
573 1
574 1
575 1
576 1
577 1
578 1
579 1
580 1
581 1
582 1
583 1
584 1
585 1
586 1
587 1
588 1
589 1
590 1
591 1
592 1
593 1
594 1
595 1
596 1
597 1
598 1
599 1
600 1
601 1
602 1
603 1
604 1
605 1
606 1
607 1
608 1
609 1
610 1
611 1
612 1
613 1
614 1
615 1
616 1
617 1
618 1
619 1
620 1
621 1
622 1
623 1
624 1
625 1
626 1
627 1
628 1
629 1
630 1
631 1
632 1
633 1
634 1
635 1
636 1
637 1
638 1
639 1
640 1
641 1
642 1
643 1
644 1
645 1
646 1
647 1
648 1
649 1
650 1
651 1
652 1
653 1
654 1
655 1
656 1
657 1
658 1
659 1
660 1
661 1
662 1
663 1
664 1
665 1
666 1
667 1
668 1
669 1
670 1
671 1
672 1
673 1
674 1
675 1
676 1
677 1
678 1
679 1
680 1
681 1
682 1
683 1
684 1
685 1
686 1
687 1
688 1
689 1
690 1
691 1
692 1
693 1
694 1
695 1
696 1
697 1
698 1
699 1
700 1
701 1
702 1
703 1
704 1
705 1
706 1
707 1
708 1
709 1
710 1
711 1
712 1
713 1
714 1
715 1
716 1
717 1
718 1
719 1
720 1
end materials
